{
  "accessors": [
    {
      "bufferView": 1,
      "componentType": 5126,
      "count": 20525,
      "max": [
        9.009933471679688,
        8.927597045898438,
        25.42003631591797
      ],
      "min": [
        -8.995055198669434,
        -9.093095779418945,
        16.702041625976562
      ],
      "type": "VEC3"
    },
    {
      "bufferView": 1,
      "byteOffset": 246300,
      "componentType": 5126,
      "count": 20525,
      "max": [
        1,
        1,
        0.9999722838401794
      ],
      "min": [
        -1,
        -1,
        -1
      ],
      "type": "VEC3"
    },
    {
      "bufferView": 0,
      "componentType": 5125,
      "count": 119922,
      "type": "SCALAR"
    },
    {
      "bufferView": 2,
      "componentType": 5126,
      "count": 20525,
      "type": "VEC2",
      "min": [
        0,
        0
      ],
      "max": [
        1,
        1
      ]
    }
  ],
  "asset": {
    "extras": {
      "author": "bac.canh.5661 (https://sketchfab.com/bac.canh.5661)",
      "license": "CC-BY-4.0 (http://creativecommons.org/licenses/by/4.0/)",
      "source": "https://sketchfab.com/3d-models/keycap-72a4129f06294e6c9cd60a0feeb6b508",
      "title": "KeyCap"
    },
    "generator": "Sketchfab-16.10.0",
    "version": "2.0"
  },
  "bufferViews": [
    {
      "buffer": 0,
      "byteLength": 479688,
      "name": "floatBufferViews",
      "target": 34963
    },
    {
      "buffer": 0,
      "byteLength": 492600,
      "byteOffset": 479688,
      "byteStride": 12,
      "name": "floatBufferViews",
      "target": 34962
    },
    {
      "buffer": 0,
      "byteLength": 164200,
      "byteOffset": 972288,
      "name": "uvBufferView",
      "target": 34962
    }
  ],
  "buffers": [
    {
      "byteLength": 1136488,
      "uri": "scene.bin?v=4"
    }
  ],
  "materials": [
    {
      "doubleSided": true,
      "name": "Scene_-_Root",
      "pbrMetallicRoughness": {
        "metallicFactor": 0,
        "roughnessFactor": 0.6
      }
    }
  ],
  "meshes": [
    {
      "name": "Object_0",
      "primitives": [
        {
          "attributes": {
            "NORMAL": 1,
            "POSITION": 0,
            "TEXCOORD_0": 3
          },
          "indices": 2,
          "material": 0,
          "mode": 4
        }
      ]
    }
  ],
  "nodes": [
    {
      "children": [
        1
      ],
      "matrix": [
        1,
        0,
        0,
        0,
        0,
        2.220446049250313e-16,
        -1,
        0,
        0,
        1,
        2.220446049250313e-16,
        0,
        0,
        0,
        0,
        1
      ],
      "name": "Sketchfab_model"
    },
    {
      "children": [
        2
      ],
      "name": "uploads_files_4710174_KeyCap+-+Test+Size.stl.cleaner.materialmerger.gles"
    },
    {
      "mesh": 0,
      "name": "Object_2"
    }
  ],
  "scene": 0,
  "scenes": [
    {
      "name": "Sketchfab_Scene",
      "nodes": [
        0
      ]
    }
  ]
}