<svg width="63" height="64" viewBox="0 0 63 64" fill="none" xmlns="http://www.w3.org/2000/svg">
<path d="M24.1972 60.5059C22.9524 60.0627 21.7768 59.5016 20.6632 58.832C20.3938 58.6497 20.1316 58.4561 19.79 58.3934C17.5905 57.5836 15.5738 56.4474 13.4713 55.4664C9.37276 53.554 5.32475 51.5538 1.22514 49.6432C0.391184 49.2552 0.040264 48.8269 0.0412961 47.9525C0.0598744 37.2525 0.047499 26.5526 2.11714e-05 15.8526C-0.00307521 15.0484 0.333382 14.6987 1.06722 14.3526C10.0859 10.0977 19.0871 5.81101 28.0945 1.53738C29.1999 1.01276 30.3198 0.511526 31.4334 0C31.9639 0.340394 31.9815 0.861271 31.9825 1.36625C32.0031 9.81157 32.0145 18.2569 31.9784 26.7031C31.9784 26.9369 31.9443 27.1688 31.8762 27.3942C31.4891 28.3359 30.776 27.9226 30.1887 27.6691C27.7828 26.6311 25.4584 25.4463 23.1093 24.3101C21.5157 23.5395 19.9139 22.7858 18.2872 22.0788C16.3024 21.2166 14.6056 22.1621 14.6098 24.1128C14.6242 30.0323 14.554 35.9518 14.65 41.8684C15.5418 43.6387 16.7813 45.2322 17.7949 46.9416C20.1946 50.9889 22.6562 55.0063 25.2541 58.9526C25.3201 59.0527 25.3882 59.1556 25.4295 59.265C25.6246 59.7859 26.3089 60.3329 25.6989 60.8463C25.2076 61.2596 24.7194 60.5817 24.1961 60.5078L24.1972 60.5059Z" fill="#02A9E1"/>
<path d="M31.5565 27.7365C31.4109 26.7256 31.4791 25.71 31.4791 24.6972C31.4791 17.2834 31.4914 9.87048 31.4925 2.45663C31.4925 1.63744 31.4533 0.819189 31.4326 0C31.8806 0.0355356 32.2335 0.274933 32.6134 0.454482C42.3133 5.05167 52.006 9.66007 61.7204 14.2311C62.5636 14.6276 62.8701 15.0746 62.8681 15.9349C62.8381 26.5189 62.8536 37.1029 62.8402 47.6869C62.8402 48.1152 63.0735 48.6202 62.5667 48.9746C61.9113 48.9344 61.3302 48.6978 60.7739 48.4042C57.0778 46.4516 53.324 44.5934 49.6207 42.653C49.212 42.4389 48.795 42.2341 48.6093 41.8002C48.409 41.2297 48.4627 40.6415 48.4617 40.0589C48.4575 34.7968 48.4658 29.5357 48.4555 24.2736C48.4513 22.1639 46.6369 21.1278 44.5313 22.0742C40.8322 23.7359 37.2362 25.5772 33.5836 27.3203C32.956 27.6196 32.3595 28.1077 31.5575 27.7383L31.5565 27.7365Z" fill="#F8A50D"/>
<path d="M48.8009 41.9351C51.5588 43.1956 54.1803 44.676 56.8793 46.0329C58.4533 46.8249 60.0211 47.6282 61.591 48.4278C61.9244 48.598 62.3156 48.684 62.5684 48.973C62.1793 49.3461 61.6901 49.5818 61.1957 49.8183C53.3877 53.5496 45.5807 57.2836 37.7768 61.0233C36.0634 61.8444 34.3666 62.6916 32.6574 63.5192C32.2817 63.7016 31.9329 63.9522 31.4767 63.9615C31.2248 63.6782 31.1072 63.3471 31.1072 62.9908C31.1092 58.9276 30.9585 54.8625 31.1804 50.8021C31.3095 50.2551 31.7512 49.9558 32.2601 49.7136C37.4775 47.2327 42.6164 44.6199 47.8266 42.1286C48.1321 41.9827 48.4335 41.8238 48.8009 41.9341V41.9351Z" fill="#EC910E"/>
<path d="M31.4788 50.43C31.4736 54.6288 31.4674 58.8276 31.4633 63.0273C31.4633 63.3378 31.4716 63.6492 31.4767 63.9597C30.4209 63.7165 29.5105 63.1835 28.5775 62.7141C27.117 61.979 25.5843 61.3581 24.1971 60.5034C24.6957 60.393 25.059 60.841 25.541 60.783C25.8651 60.5043 25.607 60.2584 25.4759 60.0452C24.4056 58.3151 23.3167 56.5954 22.2351 54.8719C21.1751 53.1821 20.0573 51.5194 19.0716 49.7941C17.5719 47.171 15.9546 44.6115 14.2402 42.1015C14.906 41.8715 15.4045 42.2633 15.9174 42.5093C20.7055 44.8097 25.4512 47.1813 30.2526 49.4593C30.7408 49.6903 31.2827 49.8876 31.4798 50.429L31.4788 50.43Z" fill="#049BD0"/>
<path d="M19.7886 58.3962C20.1994 58.3476 20.4987 58.4803 20.6617 58.8348C20.3067 58.7927 20.0239 58.6318 19.7886 58.3962Z" fill="#049BD0"/>
<path d="M31.479 50.431C26.1522 47.849 20.8243 45.2662 15.4965 42.6852C15.0816 42.4841 14.6584 42.2971 14.2394 42.1035C14.2136 41.6761 14.164 41.2478 14.1651 40.8205C14.1661 35.045 14.196 29.2695 14.1568 23.495C14.1506 22.6534 14.5129 22.3027 15.2674 21.9043C16.5555 21.2245 17.631 21.2282 18.9593 21.9043C22.4861 23.7007 26.0954 25.3634 29.682 27.0616C30.2766 27.3431 30.8133 27.7883 31.5595 27.7359C32.1726 27.6555 32.6804 27.3487 33.2109 27.0953C37.0514 25.2578 40.8971 23.4267 44.7201 21.5592C45.4323 21.2114 46.0237 21.1712 46.7658 21.4985C49.2243 22.5842 48.8187 22.0436 48.8259 24.3965C48.8435 30.2421 48.8146 36.0886 48.8032 41.9352C46.3086 43.3136 43.688 44.4816 41.1252 45.7468C37.9215 47.3272 34.6972 48.8721 31.4811 50.4319L31.479 50.431Z" fill="#F2F4F3"/>
<path d="M31.4901 46.3976C31.0928 46.3621 30.7604 46.1751 30.4209 46.0123C26.5844 44.1701 22.7563 42.3157 18.9075 40.495C18.2573 40.1873 17.9827 39.831 17.9827 39.1437C17.9827 34.8972 17.9301 30.6497 17.9032 26.4032C17.9012 26.1451 17.8052 25.8608 18.1654 25.5036C22.6345 27.4581 27.0252 29.6388 31.4355 31.7859C32.03 32.1478 31.9835 32.7248 31.9876 33.2551C32.0155 37.1322 32.0083 41.0093 31.9938 44.8864C31.9918 45.4307 31.9794 45.9815 31.4901 46.3976Z" fill="#01A2DA"/>
<path d="M31.4902 46.3967C31.4902 42.2662 31.4923 38.1347 31.4872 34.0042C31.4872 33.2645 31.4541 32.5257 31.4355 31.786C35.6157 29.7829 39.7927 27.7733 43.981 25.7833C44.8439 25.3727 44.9894 25.4635 44.9915 26.3752C44.9997 30.6227 44.977 34.8701 45.0028 39.1166C45.007 39.7478 44.7789 40.1051 44.1627 40.3987C41.0044 41.9034 37.8781 43.4632 34.7136 44.9585C33.6536 45.4597 32.6916 46.1545 31.4902 46.3977V46.3967Z" fill="#F3990A"/>
</svg>
